<?xml version="1.0" encoding="UTF-8"?>
<svg xmlns="http://www.w3.org/2000/svg" xmlns:xlink="http://www.w3.org/1999/xlink" width="1000pt" height="1000pt" viewBox="0 0 1000 1000" version="1.1">
<g id="surface14">
<rect x="0" y="0" width="1000" height="1000" style="fill:rgb(100%,100%,100%);fill-opacity:1;stroke:none;"/>
<path style=" stroke:none;fill-rule:nonzero;fill:rgb(100%,0%,0%);fill-opacity:1;" d="M 164 473 C 164 484.046875 155.046875 493 144 493 C 132.953125 493 124 484.046875 124 473 C 124 461.953125 132.953125 453 144 453 C 155.046875 453 164 461.953125 164 473 "/>
<path style=" stroke:none;fill-rule:nonzero;fill:rgb(100%,0%,0%);fill-opacity:1;" d="M 440 824 C 440 835.046875 431.046875 844 420 844 C 408.953125 844 400 835.046875 400 824 C 400 812.953125 408.953125 804 420 804 C 431.046875 804 440 812.953125 440 824 "/>
<path style=" stroke:none;fill-rule:nonzero;fill:rgb(100%,0%,0%);fill-opacity:1;" d="M 806 179 C 806 190.046875 797.046875 199 786 199 C 774.953125 199 766 190.046875 766 179 C 766 167.953125 774.953125 159 786 159 C 797.046875 159 806 167.953125 806 179 "/>
<path style=" stroke:none;fill-rule:nonzero;fill:rgb(100%,0%,0%);fill-opacity:1;" d="M 76 610 C 76 621.046875 67.046875 630 56 630 C 44.953125 630 36 621.046875 36 610 C 36 598.953125 44.953125 590 56 590 C 67.046875 590 76 598.953125 76 610 "/>
<path style=" stroke:none;fill-rule:nonzero;fill:rgb(100%,0%,0%);fill-opacity:1;" d="M 856 794 C 856 805.046875 847.046875 814 836 814 C 824.953125 814 816 805.046875 816 794 C 816 782.953125 824.953125 774 836 774 C 847.046875 774 856 782.953125 856 794 "/>
<path style=" stroke:none;fill-rule:nonzero;fill:rgb(100%,0%,0%);fill-opacity:1;" d="M 446 323 C 446 334.046875 437.046875 343 426 343 C 414.953125 343 406 334.046875 406 323 C 406 311.953125 414.953125 303 426 303 C 437.046875 303 446 311.953125 446 323 "/>
<path style=" stroke:none;fill-rule:nonzero;fill:rgb(100%,0%,0%);fill-opacity:1;" d="M 869 440 C 869 451.046875 860.046875 460 849 460 C 837.953125 460 829 451.046875 829 440 C 829 428.953125 837.953125 420 849 420 C 860.046875 420 869 428.953125 869 440 "/>
<path style=" stroke:none;fill-rule:nonzero;fill:rgb(100%,0%,0%);fill-opacity:1;" d="M 314 460 C 314 471.046875 305.046875 480 294 480 C 282.953125 480 274 471.046875 274 460 C 274 448.953125 282.953125 440 294 440 C 305.046875 440 314 448.953125 314 460 "/>
<path style=" stroke:none;fill-rule:nonzero;fill:rgb(100%,0%,0%);fill-opacity:1;" d="M 298 57 C 298 68.046875 289.046875 77 278 77 C 266.953125 77 258 68.046875 258 57 C 258 45.953125 266.953125 37 278 37 C 289.046875 37 298 45.953125 298 57 "/>
<path style=" stroke:none;fill-rule:nonzero;fill:rgb(100%,0%,0%);fill-opacity:1;" d="M 379 374 C 379 385.046875 370.046875 394 359 394 C 347.953125 394 339 385.046875 339 374 C 339 362.953125 347.953125 354 359 354 C 370.046875 354 379 362.953125 379 374 "/>
</g>
</svg>
